<svg version="1" xmlns="http://www.w3.org/2000/svg" width="889.333" height="889.333" viewBox="0 0 667.000000 667.000000"><path d="M305.5 110.7c-4.9.7-12.6 2-17 2.9-9.8 2-9.1 1.8-14.5 3.3-2.5.7-4.7 1.3-5 1.3-.3 0-4.1 1.4-8.5 3s-8.6 3-9.2 3.1c-.7 0-1.3.4-1.3.9 0 .4-.7.8-1.5.8-1.6 0-24.5 10.9-25.5 12.1-.3.4-2.3 1.5-4.5 2.7-2.2 1.1-8.4 5.2-13.8 9.1-11.5 8.3-10.6 7.6-24.6 20.3l-4.2 3.8H152.2l-20.9-10.4-20.9-10.4-3.2 6.2c-1.8 3.4-3.2 6.7-3.2 7.3 0 .6-.3 1.3-.7 1.5-.7.3-13.3 25.2-13.3 26.3 0 .3 2.2 1.6 4.9 3 4.3 2.1 5 2.9 4.9 5.3-.1 1.6.2 3.4.6 4.1.4.6.3 1.1-.3 1.1s-.6 1.1-.1 2.9c.4 1.5.4 3.4 0 4.2-.5.7-.7 1.6-.4 2.1.3.4.4 3.3.4 6.5-.1 3.2 0 6.7 0 7.8.1 1.1.1 2.7.1 3.5-.1.8 0 4 0 7 .1 3 .1 6.2 0 7-.4 7.9-.1 83.2.4 84 .3.5.1 1-.5 1s-.9.4-.6.8c.3.5.5 3.3.5 6.3.1 3 .2 7 .2 8.9.1 1.9.1 4.2 0 5v7c.1 3 .1 6.2 0 7-.1.8-.1 3.8 0 6.7v5.2l-5.1 2.6c-2.7 1.4-5 2.8-5 3.1 0 .3 4.5 9.7 10.1 20.9l10.1 20.3 2.6-1.2c1.5-.6 5.6-2.6 9.1-4.4 6.8-3.5 8.1-3.8 8.1-2.1 0 .7 2.2 5.6 5 11.1l5 9.9-3.3-.5c-1.7-.3-4.3-.8-5.7-1-1.4-.3-5.2-.8-8.5-1.1-3.3-.3-7.3-.8-9-1-9.3-1.2-24.6-1.8-44.7-1.9-21.9 0-22.9.1-25.7 2.2-1.7 1.2-3.2 2.2-3.5 2.2-.3 0-6.5 3.6-14 8-7.4 4.4-14 8-14.5 8-.6 0-1.1.4-1.1.9s-.8 1.1-1.7 1.5c-3.9 1.2-8 4.3-7.8 5.6.2.8 1.3 4.9 2.6 9s2.4 7.7 2.4 8c.1.3.9 3.1 1.8 6.2 1 3.2 1.7 6 1.7 6.3 0 .3.7 1.9 1.5 3.5.9 1.7 1.3 3 1 3-.3 0 .1 1.6.9 3.5s1.2 3.5.9 3.5c-.3 0-.1.6.5 1.3.6.6 1.1 1.6 1.1 2.2.3 1.9 2.2 9 3.2 11.6 1 2.6 1.7 2.8 4.9 1.6 4.9-1.9 32.6-8.2 40.5-9.2 2.2-.2 5.1-.7 6.5-1 2.5-.6 4.2-.8 14-2 3-.3 6.6-.8 8-1 19.3-3 66.6-2.4 92 1.1 2.5.3 5.5.8 6.8.9 15.4 2.1 18.6 3 26.7 8.1 6.4 4 23.5 12.7 30 15.2 2.8 1.1 7.3 2.9 10 4 2.8 1.1 6.4 2.3 8 2.7 1.7.5 3.5.9 4 1.1 12 3.5 16.8 4.6 27.3 6.4 2.9.5 6.8 1.9 8.7 3 3.2 2 3.3 2.2 2 4.6-.7 1.5-1.1 3.7-.9 5.1.5 2.4 5.4 10.6 5.4 9 0-.4 1.2 0 2.7 1 1.4.9 3.1 1.8 3.7 2 .6.1 2.2.5 3.6.8 3 .8 14.8.9 20.8.2s14.4-5.1 16.5-8.6c2.1-3.6 2.2-8.4.2-10.1-.8-.7-1.2-1.6-.9-2.1.7-1.2 7.6-4.4 9.4-4.4.8 0 2-.3 2.5-.7.6-.3 3.5-.9 6.5-1.4 5.8-.8 6.8-1 7.3-1.4.1-.1.9-.3 1.9-.5 3.6-.7 20.5-5.8 23.8-7.2 6.7-2.8 7.5-3.2 10-3.9 1.4-.4 2.7-.9 3-1.3.3-.3 3.9-2.2 8-4.1 4.1-1.9 10.9-5.6 15.2-8.2 8.3-5 9.9-5.7 15-6.3 1.8-.2 4.4-.6 5.8-1 3.4-.8 11-1.9 13.8-1.9 1.2-.1 2.2-.3 2.2-.6s1-.5 2.3-.6c1.2 0 6.3-.4 11.2-.9 5-.4 11-.9 13.5-1.1 6.6-.4 42.9-.4 47 0 1.9.2 7.6.7 12.5 1.1 5 .3 10.4.9 12 1.1 1.7.3 4.6.7 6.5.9 1.9.2 6.2.8 9.5 1.3 3.3.6 7.4 1.3 9 1.6 1.7.3 3.9.7 5 .9 1.1.3 4 .8 6.5 1.3 5.1.9 5.9 1.1 6.3 1.4.1.1 1.1.3 2.2.5s4 .9 6.5 1.5 5.2 1.3 6 1.5c.8.2 2.8.8 4.3 1.4 1.6.6 3 1.1 3.2 1.1.4 0 4.2-11.6 5-15 .2-.8.9-2.9 1.5-4.5.6-1.7 1.3-3.7 1.5-4.6.4-1.9 5.7-19.2 9.1-29.9 2.9-8.9 2.9-9.6.7-10.3-2.4-.8-7.7-4-8.1-5-.2-.4-.8-.7-1.4-.7-.6 0-6.2-3.2-12.5-7-6.3-3.9-11.7-7-12-7-.2 0-2.3-1.2-4.6-2.8l-4.2-2.7-21.5.1c-19.6.1-39.7.9-44.6 1.8-1 .2-5 .7-8.7 1.1-3.7.3-7.8.8-9 1.1-4.9.9-10.7 1.3-10.7.6 0-.4.8-1.8 1.7-3.2.9-1.3 3.4-5.9 5.5-10.2l3.8-7.8 7.2 3.7c4 2.1 8.1 4.1 9 4.5 1.3.6 2.3-.6 4.9-6 1.8-3.7 3.7-7 4.2-7.3.5-.3.8-.8.6-1-.1-.2 2.7-6.3 6.2-13.5l6.5-13-5-2.6-5.1-2.5-.2-89.4c-.1-49.2.1-90.1.3-91 .2-.9 2.4-2.4 4.9-3.4 2.9-1.2 4.3-2.4 4.2-3.4-.2-.9-4.7-10.5-10.1-21.3l-9.8-19.8-13.2 6.6c-7.2 3.7-16.5 8.4-20.8 10.5-7.6 3.9-7.6 3.9-19.7 3.9h-12l-5.2-4.8c-2.9-2.6-6-5.4-6.9-6.2-.8-.8-3.6-3.1-6-5-2.5-1.9-4.7-3.7-5-4.1-1-1.2-19-12.9-19.9-12.9-.5 0-1.1-.4-1.3-.9-1.1-2.9-45.9-22.4-53.8-23.3-1.4-.2-3.1-.7-3.7-1.1-.7-.5-1.3-.6-1.3-.3 0 .2-1.5 0-3.2-.5-1.8-.5-4.6-1.2-6.3-1.4-1.6-.3-3.7-.7-4.5-.8-.8-.2-3.7-.7-6.5-1.1-2.7-.4-6.3-1-8-1.3-6.5-1.1-44.2-.9-53 .4z"/></svg>